<?xml version="1.0" encoding="UTF-8" standalone="no"?>
<!-- Created with Inkscape (http://www.inkscape.org/) -->

<svg
   width="166.47777mm"
   height="26.636408mm"
   viewBox="0 0 166.47777 26.636408"
   version="1.1"
   id="svg1"
   xmlns="http://www.w3.org/2000/svg"
   xmlns:svg="http://www.w3.org/2000/svg">
  <defs
     id="defs1" />
  <g
     id="layer1"
     transform="translate(-32.861387,-119.96762)">
    <g
       id="g2">
      <g
         id="g3">
        <g
           id="layer1-5"
           transform="matrix(0.47390451,0,0,0.47390451,9.0609685,43.999007)">
          <path
             style="opacity:1;fill:#0044cc;fill-opacity:1;stroke:none;stroke-width:0.264583;stroke-linecap:square;stroke-linejoin:miter;stroke-dasharray:none;paint-order:normal"
             d="m 56.705223,216.84095 -0.612291,8.03631 c -2.690614,-1.75543 -5.221583,-3.61171 -6.35251,-6.35251 0.564444,-1.00544 1.050345,-2.08418 2.304007,-2.44652 l 5.120012,-5.43672 c -0.0686,2.0738 -0.02506,4.15731 -0.459218,6.19944 z"
             id="neck"
             transform="matrix(2.0048484,0,0,1.8511234,-10.218477,-222.02753)" />
          <path
             style="opacity:1;fill:#0066ff;fill-opacity:1;stroke:none;stroke-width:0.264583;stroke-linecap:square;stroke-linejoin:miter;stroke-dasharray:none;paint-order:normal"
             d="m 56.092932,224.87726 -9.260889,9.22262 c 0.127917,-5.31323 0.06758,-10.65365 2.908379,-15.57513 z"
             id="right-body"
             transform="matrix(2.0048484,0,0,1.8511234,-10.218477,-222.02753)" />
          <path
             style="opacity:1;fill:#0058de;fill-opacity:1;stroke:none;stroke-width:0.264583;stroke-linecap:square;stroke-linejoin:miter;stroke-dasharray:none;paint-order:normal"
             d="m 46.832043,234.09988 c -1.914582,-2.08896 -3.098348,-4.68675 -4.429547,-7.18189 l -3.453687,-5.59967 c 3.180486,-4.86416 7.016554,-3.54097 10.791613,-2.79357 z"
             id="left-body"
             transform="matrix(2.0048484,0,0,1.8511234,-10.218477,-222.02753)" />
          <path
             style="opacity:1;fill:#0055cc;fill-opacity:1;stroke:none;stroke-width:0.264583;stroke-linecap:square;stroke-linejoin:miter;stroke-dasharray:none;paint-order:normal"
             d="m 46.832043,234.09988 -10.638541,2.79357 6.266601,-9.88206 z"
             id="tail"
             transform="matrix(2.0048484,0,0,1.8511234,-10.218477,-222.02753)" />
          <path
             style="opacity:1;fill:#0044aa;fill-opacity:1;stroke:none;stroke-width:0.264583;stroke-linecap:square;stroke-linejoin:miter;stroke-dasharray:none;paint-order:normal"
             d="m 38.948809,221.31832 -8.801671,-9.91144 11.860805,4.30881 c 3.640771,-0.64572 5.890684,1.39242 7.732479,2.80906 z"
             id="front-wing"
             transform="matrix(2.0048484,0,0,1.8511234,-10.218477,-222.02753)" />
          <path
             style="opacity:1;fill:#003377;fill-opacity:1;stroke:none;stroke-width:0.264583;stroke-linecap:square;stroke-linejoin:miter;stroke-dasharray:none;paint-order:normal"
             d="m 52.045361,216.07723 -9.920298,-9.49214 -0.119214,9.12983 7.734573,2.80983 z"
             id="back-wing"
             transform="matrix(2.0048484,0,0,1.8511234,-10.218477,-222.02753)" />
          <path
             style="opacity:1;fill:#0067e0;fill-opacity:1;stroke:none;stroke-width:0.264583;stroke-linecap:square;stroke-linejoin:miter;stroke-dasharray:none;paint-order:normal"
             d="m 63.74656,216.84095 h -7.041337 l 0.459218,-6.19944 z"
             id="head"
             transform="matrix(2.0048484,0,0,1.8511234,-10.218477,-222.02753)" />
        </g>
        <path
           d="m 77.276393,131.1213 2.398107,-1.71915 -6.132932,0.002 v -2.07375 h 9.868134 v 2.07375 l -3.735194,-0.002 -0.0011,10.71015 h -2.395526 z m 12.014857,-0.16204 v 2.1631 h -0.482681 c -0.810425,0 -1.453999,0.25623 -1.930723,0.76871 -0.464802,0.50058 -0.697204,1.29909 -0.697204,2.39554 v 3.82569 h -2.359771 v -8.99215 h 2.341895 v 1.69832 c 0.190697,-0.47673 0.435005,-0.84618 0.732959,-1.10839 0.309879,-0.27428 0.637614,-0.46479 0.983237,-0.57206 0.357542,-0.11909 0.703166,-0.17863 1.036871,-0.17863 z m 4.218973,9.43907 c -0.989195,0 -1.787706,-0.26826 -2.395526,-0.80447 -0.595901,-0.54821 -0.893852,-1.25734 -0.893852,-2.12737 0,-0.9177 0.363499,-1.63874 1.090501,-2.16313 0.727001,-0.5244 1.740032,-0.78658 3.039099,-0.78658 h 1.894969 c -0.02375,-0.59591 -0.2205,-1.05474 -0.589944,-1.37653 -0.36946,-0.33372 -0.875977,-0.50057 -1.519549,-0.50057 -0.858098,0 -1.656608,0.34564 -2.395525,1.03688 l -1.233519,-1.41229 c 1.072626,-0.95345 2.353814,-1.43018 3.843568,-1.43018 1.239476,0 2.228674,0.33968 2.967591,1.01902 0.738916,0.67933 1.108376,1.59104 1.108376,2.73519 v 5.524 h -2.073738 v -1.0905 c -0.309878,0.42906 -0.709123,0.76871 -1.197761,1.01899 -0.488638,0.23849 -1.03687,0.35754 -1.64469,0.35754 z m 0.554189,-1.73407 c 0.500557,0 0.941523,-0.13112 1.322901,-0.3933 0.393296,-0.27428 0.679329,-0.63164 0.858101,-1.07261 v -1.1799 h -1.734075 c -0.60782,0 -1.084543,0.11908 -1.430164,0.35754 -0.345623,0.23849 -0.518435,0.57206 -0.518435,1.00112 0,0.38136 0.137044,0.69124 0.411172,0.9296 0.274121,0.23849 0.637613,0.35755 1.0905,0.35755 z m 13.372028,-1.4838 1.46592,1.4659 c -0.45288,0.54825 -1.00707,0.97731 -1.66257,1.28715 -0.65549,0.30975 -1.36461,0.46482 -2.12736,0.46482 -0.91769,0 -1.73408,-0.2027 -2.44916,-0.60782 -0.70317,-0.41715 -1.25735,-0.98325 -1.66257,-1.69831 -0.40521,-0.727 -0.60782,-1.55532 -0.60782,-2.48492 0,-0.94151 0.19665,-1.76983 0.58994,-2.48492 0.40522,-0.71506 0.95941,-1.27521 1.66257,-1.68042 0.71508,-0.40524 1.53743,-0.60785 2.46704,-0.60785 1.59701,0 2.86032,0.584 3.78993,1.75197 l -1.48379,1.4659 c -0.58399,-0.83427 -1.30503,-1.25139 -2.16313,-1.25139 -0.70317,0 -1.28119,0.25623 -1.73407,0.76871 -0.45289,0.51249 -0.67933,1.19182 -0.67933,2.038 0,0.84618 0.22645,1.53147 0.67933,2.05586 0.4648,0.51248 1.04878,0.76871 1.75195,0.76871 0.88193,0 1.60297,-0.41712 2.16312,-1.25139 z m 5.55978,2.93184 h -2.35977 v -12.87183 h 2.35977 v 7.84803 l 3.5039,-3.96869 h 2.78882 l -3.95082,4.32624 0.51005,0.53741 3.94133,4.1285 h -2.96759 l -3.82569,-4.12961 z m 11.70946,0.286 c -0.92961,0 -1.74599,-0.2027 -2.44916,-0.60782 -0.70316,-0.41715 -1.25735,-0.98325 -1.66256,-1.69831 -0.3933,-0.727 -0.58995,-1.55532 -0.58995,-2.48492 0,-0.92961 0.19665,-1.75197 0.58995,-2.46703 0.40521,-0.727 0.9594,-1.2931 1.66256,-1.69831 0.70317,-0.40524 1.51955,-0.60785 2.44916,-0.60785 0.9296,0 1.74599,0.2027 2.44916,0.60785 0.71508,0.40521 1.27522,0.97131 1.68044,1.69831 0.40521,0.71506 0.60782,1.53742 0.60782,2.46703 0,0.9296 -0.20261,1.75792 -0.60782,2.48492 -0.40522,0.71506 -0.96536,1.28116 -1.68044,1.69831 -0.70317,0.40521 -1.51956,0.60782 -2.44916,0.60782 z m 0,-1.96648 c 0.67933,0 1.22756,-0.26225 1.64469,-0.78658 0.42905,-0.52439 0.64357,-1.20372 0.64357,-2.03799 0,-0.82236 -0.21451,-1.49571 -0.64357,-2.0201 -0.41713,-0.5244 -0.96536,-0.78661 -1.64469,-0.78661 -0.66741,0 -1.20968,0.26225 -1.62681,0.78661 -0.41713,0.52439 -0.6257,1.19774 -0.6257,2.0201 0,0.83427 0.20856,1.5136 0.6257,2.03799 0.41713,0.5244 0.9594,0.78658 1.62681,0.78658 z m 12.28154,-7.47259 v 2.1631 h -0.48269 c -0.81042,0 -1.454,0.25622 -1.93072,0.76871 -0.4648,0.50057 -0.6972,1.29909 -0.6972,2.39554 v 3.82569 h -2.35977 v -8.99215 l 2.34189,0.002 v 1.6968 c 0.4058,-0.86626 0.92999,-1.22302 1.7162,-1.68046 0.35754,-0.11908 0.70316,-0.17863 1.03686,-0.17863 z m 4.30836,-2.77095 c 0,0.38136 -0.13705,0.7091 -0.41117,0.98322 -0.27412,0.27397 -0.61974,0.41117 -1.03687,0.41117 -0.41713,0 -0.76276,-0.13714 -1.03687,-0.41117 -0.27412,-0.27428 -0.41117,-0.60186 -0.41117,-0.98322 0,-0.3933 0.13704,-0.72104 0.41117,-0.98326 0.27412,-0.27428 0.61974,-0.41116 1.03687,-0.41116 0.41713,0 0.76275,0.13714 1.03687,0.41116 0.27412,0.26225 0.41117,0.58996 0.41117,0.98326 z m -0.26817,11.92399 h -2.35977 v -7.27401 l 2.35977,-1.71662 z"
           id="text16"
           style="font-weight:bold;font-size:5.64444px;font-family:'Wix Madefor Text';-inkscape-font-specification:'Wix Madefor Text, Bold';fill:#1a1a1a;stroke:none;stroke-width:0.264583"
           aria-label="Trackori"
           transform="matrix(1.9579154,0,0,1.9579154,-77.305646,-128.28404)" />
      </g>
    </g>
  </g>
</svg>
